# xmcd
#
# Track frame offsets:
#	150
#	12155
#	25195
#	39490
#	52242
#	64712
#	78845
#	90675
#	102690
#	116677
#	130652
#	143660
#	156872
#	169267
#	180835
#	192827
#	206525
#	220522
#	233245
#	246105
#	258322
#	270857
#	283507
#	297305
#	311122
#	324622
#	337550
#
# Disc length: 4671 seconds
#
# Revision: 0
# Processed by: cddbd v1.5.2PL0 Copyright (c) Steve Scherf et al.
# Submitted via: EasyCDDAExtractor 10.0.3.1
#
DISCID=77123d1b
DTITLE=Red Foley - Old Shep (The Red Foley Recordings, 1933-50) - Disc 4
DYEAR=2006
DGENRE=Country
TTITLE0=Tennessee Saturday Night
TTITLE1=Blues In My Heart
TTITLE2=Never Trust A Woman
TTITLE3=Easy To Please (with Betty Wade)
TTITLE4=Blue And Mighty Lonesome
TTITLE5=Back To Tennessee
TTITLE6=A Smile Will Chase A Tear Away
TTITLE7=Tit For Tat
TTITLE8=Square Dance Tennessee
TTITLE9=I'm Waltzing With A Broken Heart
TTITLE10=Stranded In Deep Water
TTITLE11=Ruby Red Lips
TTITLE12=Don't Make Me Go To Bed And I'll Be Good
TTITLE13=Never Mind About Me
TTITLE14=You're Just In Time To Be Too Late
TTITLE15=Through A Thousand Tears
TTITLE16=Television
TTITLE17=I Found A Brand New Sweetheart (In That Old Sweetheart Of Mine)
TTITLE18=I Won And I Lost
TTITLE19=The Last Thing I Want Is Your Pity
TTITLE20=My Broken Heart And I
TTITLE21=I'm Picking Up The Pieces Of A Broken Heart
TTITLE22=That Little Boy Of Mine
TTITLE23=Television (Stutter Version)
TTITLE24=Just A Man And His Dog
TTITLE25=Television (Straight Version)
TTITLE26=Everybody's Gonna Have A Wonderful Time
EXTD=
EXTT0=
EXTT1=
EXTT2=
EXTT3=
EXTT4=
EXTT5=
EXTT6=
EXTT7=
EXTT8=
EXTT9=
EXTT10=
EXTT11=
EXTT12=
EXTT13=
EXTT14=
EXTT15=
EXTT16=
EXTT17=
EXTT18=
EXTT19=
EXTT20=
EXTT21=
EXTT22=
EXTT23=
EXTT24=
EXTT25=
EXTT26=
PLAYORDER=
